<?xml version="1.0" encoding="UTF-8" standalone="no"?>
<!-- Created with Inkscape (http://www.inkscape.org/) -->
<svg id="svg2" xmlns:rdf="http://www.w3.org/1999/02/22-rdf-syntax-ns#" xmlns="http://www.w3.org/2000/svg" height="50" width="150" version="1.1" xmlns:cc="http://creativecommons.org/ns#" xmlns:dc="http://purl.org/dc/elements/1.1/" viewBox="0 0 150 50.000001">
 <metadata id="metadata7">
  <rdf:RDF>
   <cc:Work rdf:about="">
    <dc:format>image/svg+xml</dc:format>
    <dc:type rdf:resource="http://purl.org/dc/dcmitype/StillImage"/>
    <dc:title/>
   </cc:Work>
  </rdf:RDF>
 </metadata>
 <g id="layer1" transform="translate(0 -1002.4)">
  <g id="text4136" fill="#4d4d4d" transform="translate(.0000068333 .010709)">
   <path id="path4309" d="m38.692 1013.2q0.09732 0 0.35682-0.032 0.2595-0.033 0.32438-0.033 0.03244 0 0.4217-0.1297 0.4217-0.1298 0.61633-0.1298 0.09732 0 1.1353 0.4542 1.0705 0.4217 1.2002 0.4217 0.16219 0 0.25951-0.097 0.12975-0.097 0.16219-0.097 0.09732 0 0.29194 0.292 0.22707 0.2919 0.22707 0.519 0 0.1297-0.16219 0.6812-0.16219 0.519-0.16219 0.7785 0 4.444 0.90827 10.964 0.90827 6.4877 1.9787 9.3422 0 0.2271-0.06488 0.292-0.03244 0-0.32438 0.032-0.29194 0.033-0.32438 0.033-0.19463-0.1298-0.32438-0.1298-0.03244 0.032-0.12975 0.1622-0.06488 0.1622-0.16219 0.2595-0.06488 0.1298-0.12975 0.1298-1.1678 0-1.2327-0.065-0.58389-0.292-0.61633-0.292-0.16219-0.032-0.38926-0.1622-0.19463-0.1297-0.22707-0.1622-0.09732-0.032-0.22707-0.032-0.09731-0.032-0.16219-0.032-0.03244-0.033-0.06488-0.033-0.19463-0.3892-0.61633-1.9787-0.03244-0.1298-0.16219-0.9083t-0.25951-1.4273q-0.12975-0.6487-0.19463-0.8109-0.84339 0.097-2.368 0.5514-1.4922 0.4217-2.1085 0.6812-0.51901 0.1622-1.7517 0.7137-1.2327 0.519-1.4597 0.6488-0.16219 0.1297-0.25951 0.5514l-0.16219 0.7136q-0.19463 0.7461-0.38926 1.5246-0.16219 0.7461-0.16219 1.0056-0.03244 0.3244-0.09732 0.3893-0.03244 0.065-0.12975 0t-0.16219-0.065q-0.09731 0-0.48657-0.2595-0.35682-0.2595-0.4217-0.3568-0.03244-0.065-0.19463-0.2595-0.16219-0.1622-0.29194-0.3244-0.12975-0.1298-0.12975-0.2271 0-0.1297 0.32438-1.3624 0.35682-1.2651 0.51901-1.7192 0.12975-0.4541 3.1141-8.0771 3.0168-7.623 3.6655-9.2449 0.6812-1.7517 0.6812-2.0761 0-0.6163 0.32438-0.6163zm1.5246 15.278q-0.03244-0.2919-0.32438-2.1734-0.25951-1.9138-0.29194-2.2706-0.25951-2.1085-0.74608-4.3143-0.61633 0.8434-2.1409 4.217-1.4922 3.3735-1.6544 3.925l-0.81096 2.3355q0.58389-0.032 2.9843-0.746 2.4004-0.7461 2.9843-0.9732z"/>
   <path id="path4311" d="m48.445 1024.6q-0.74608-0.7461-0.74608-2.1409 0-0.6812 0.16219-1.0705 0.19463-0.3892 0.4217-0.5514t0.77852-0.4217l0.19463 0.065q0.19463 0.065 0.35682 0.1622 0.19463 0.065 0.38926 0.1947 0.22707 0.1297 0.35682 0.2919t0.12975 0.3244q0 0.6163-0.25951 1.7841 0.38926 0.1946 0.4217 0.1946 0.09731 0 1.1353-0.6812 0.55145-0.3568 0.97315-0.065 0.19463 0.1298 1.1029 0.4542 0.90827 0.2919 1.0705 0.4217 0.55145 0.3568 0.55145 0.9407 0 0.1622-0.48657 1.6219-0.48657 1.4273-1.0056 3.3087-0.48657 1.8814-0.48657 3.0492 0 1.9787 1.2975 1.9787 0.84339 0 2.2058-0.9731 0.06488-0.033 0.16219-0.033 0.25951 0 0.25951 0.3893t-1.1678 1.0705q-1.1353 0.6487-2.2058 0.6487-1.7192 0-2.6599-1.038-0.90827-1.0705-0.90827-2.9519 0-2.3355 0.6812-6.4227-0.38926 0.065-1.3624 0.065-0.12975 0.7137-1.1678 5.1253-1.0056 4.3791-1.3624 5.6767-0.03244 0.097-0.22707 0.1297-0.19463 0.032-0.25951 0-0.81096-0.2595-0.61633-0.9407 0.32438-1.2002 1.2002-5.255 0.87583-4.0872 1.0705-5.3523z"/>
   <path id="path4313" d="m62.976 1014.4q0-0.4542 0.90827-0.4542 1.3624 0 2.4004 0.6812 0.51901 0.3568 1.1029 1.038 0.61633 0.6813 0.61633 0.8759 0 0.065-0.29194 0.3244-0.25951 0.227-0.32438 0.5514-1.2651 6.1308-1.8814 13.008-0.09731 1.3949 0.19463 2.7897 0.29194 1.3949 1.2002 1.3949 1.557 0 2.3031-0.7461 0.06488-0.065 0.16219 0 0.19463 0.097 0.19463 0.3893 0 0.065-0.32438 0.4217-0.32438 0.3568-1.1029 0.7785-0.77852 0.3892-1.7192 0.3892-2.9194 0-3.698-4.3791-0.48657 1.6219-0.90827 2.6599-0.97315 2.4004-2.1085 2.4004-1.2651 0-2.0436-0.8758-0.77852-0.9083-1.0056-1.9463-0.22707-1.038-0.22707-2.2382 0-4.9631 1.6219-8.8881 0.29194-0.6488 0.77852-0.6488 1.7192 0 2.1085 0.097 0.81096 0.292 1.7841 1.2327 0.4217-2.887 0.55145-5.3523 0.16219-2.8221 0.06488-3.0168-0.06488-0.1297-0.22707-0.2595-0.12975-0.1297-0.12975-0.227zm-0.45414 10.088q-0.03244-0.032-0.38926-0.3243-0.35682-0.3244-0.6812-0.5515-0.29194-0.2271-0.45414-0.2271-0.61633 0-1.4273 2.2383-0.94071 2.5302-1.1029 6.1957-0.06488 1.4273 0.16219 2.5626t0.58389 1.1353q0.94071 0 2.3356-4.5413 0.22707-0.7136 0.4217-1.9787 0.19463-1.2976 0.35682-2.8222t0.19463-1.6868z"/>
   <path id="path4315" d="m69.399 1023.8q0.38926-0.292 0.4217-0.292 0.06488 0 0.32438 0.065 0.29194 0.065 0.61633 0.065 0.09732 0 0.32438 0 0.22707-0.033 0.38926-0.033 0.19463 0 0.25951 0.033 0.29194 0.065 0.84339 0.4217 0.55145 0.3568 0.64876 0.3568-0.29194 1.1353-0.71364 3.7304-0.38926 2.595-0.38926 3.9899 0 2.7572 1.2975 2.7572 0.25951 0 0.61633-0.1297 0.35682-0.1622 0.64876-0.292 0.29194-0.1621 0.58389-0.3243 0.32438-0.1947 0.35682-0.2271 0.35682-0.1946 0.48657 0.065 0.12975 0.4217-0.06488 0.6812-1.3624 1.6219-3.9899 1.6219-1.849 0-2.6599-1.33-0.81096-1.3624-0.81096-3.3736 0-2.3031 0.81096-7.7851zm0.25951-7.3959q0-0.7461 0.55145-1.4598 0.55145-0.746 1.2975-0.746 0.4217 0 0.94071 0.227 0.55145 0.2271 0.77852 0.4542 0.2595 0.2595 0.51901 1.1029 0.25951 0.8433 0.09731 1.3299-0.45414 1.2002-2.5951 1.0056-0.51901-0.065-1.0705-0.5839-0.51901-0.5514-0.51901-1.3299z"/>
   <path id="path4317" d="m81.502 1023q0-0.2595 0.06488-0.4541 0.09731-0.2271 0.19463-0.1622 0.74608 0.4541 1.7192 0.5839 1.0056 0.097 1.2975 0.1946 0.16219 0.065 0.51901 0.3568 0.38926 0.292 0.45414 0.3244 0.06488 0.097 0.03244 0.1622 0 0.033-0.06488 0.1622-0.03244 0.097-0.03244 0.1298-0.6812 1.7516-1.1353 4.0547-0.45414 2.2707-0.45414 4.0224 0 2.076 0.61633 2.076 0.45414 0 0.87583-0.6812 0.4217-0.7136 0.77852-2.1733 0.38926-1.4922 0.58389-2.4978 0.22707-1.038 0.51901-2.9843 0.32438-1.9463 0.38926-2.2707 0.06488-0.1946 0.25951-0.1622 0.32438 0 0.71364 0.097 0.19463 0.065 0.19463 0.2596-0.06488 0.2919-0.29194 1.9138-0.19463 1.6219-0.48657 3.1141-0.29194 1.4921-0.74608 3.1465-0.45414 1.6543-1.2327 2.6599-0.74608 1.0056-1.7192 1.0056-0.77852 0-1.3948-0.3244-0.61633-0.3244-1.038-0.9082-0.4217-0.5839-0.61633-0.9732t-0.4217-0.9407q-1.3948 3.8277-2.7897 3.8277-0.4217 0-1.2002-0.4541-0.77852-0.4542-1.2002-0.9083-0.29194-0.3568-0.51901-1.2327-0.19463-0.9082-0.19463-1.6543 0-1.5246 0.29194-3.8926 0.32438-2.368 1.2002-4.7035 0.87583-2.368 2.0436-2.368 1.2975 0 2.7897 1.6543zm-0.12975 1.1678q-0.77852-0.9407-1.33-0.9407-1.0056 0-1.9463 3.7953-0.90827 3.7628-0.90827 5.4496 0 2.7897 0.6812 2.7897 0.48657 0 1.1353-1.2651 0.64876-1.2651 1.0056-2.3356 0.35682-1.1029 0.58389-1.9463 0.74608-4.3142 0.77852-5.5469z"/>
   <path id="path4319" d="m88.605 1027.2q-0.71364-0.2271-0.97315-0.6812-0.16219-0.292 0.03244-1.7193 0.22707-1.4273 0.38926-1.9138 0.03244-0.1947 0.55145-0.1947 0.32438 0 0.97315-0.097 0.64876-0.1297 0.94071-0.1297 1.2327 0.2595 1.2327 1.038 0 0.5515-0.22707 3.406-0.19463 2.8546-0.32438 3.8602l0.06488 0.065q2.0112-7.1364 2.9519-8.0771 0.38926-0.1297 1.0056 0.097 0.61633 0.2271 0.84339 0.2271 0.90827 0 0.97315 0.065 0.25951 0.097 0.77852 0.6812 0.51901 0.5514 0.51901 0.9731 0 0.097-0.22707 0.4217-0.19463 0.3244-0.25951 0.5515-1.038 3.6331-1.038 6.7796 0 2.2382 0.6812 2.2382 0.48657 0 0.90827-0.9083 0.45414-0.9082 0.81096-2.4977t0.58389-2.887q0.2595-1.2975 0.48657-3.0168 0.2595-1.7192 0.29194-1.9138 0.0973-0.3244 0.4217 0 0.6812 0.6812 0.6812 0.7461-0.0649 1.8165-0.64877 4.7359-0.55145 2.9195-1.1353 4.736-0.2595 0.811-0.48657 1.2651-0.22707 0.4217-0.84339 0.811-0.58389 0.3892-1.4922 0.3892-1.4273 0-2.4653-1.6868-1.0056-1.7192-1.0056-3.6979 0-1.3624 0.19463-2.7897 0.22707-1.4597 0.35682-1.849h-0.12975q-0.29194 0.5839-0.74608 2.0761-0.4217 1.4597-0.74608 2.7896-0.32438 1.33-0.71364 2.9195-0.35682 1.5895-0.38926 1.7517-0.12975 0.4216-0.4217 0.5838-0.29194 0-1.33-0.3243-1.0056-0.3244-1.33-0.811-0.16219-0.2919-0.16219-1.3624 0-0.4866 0.12975-3.1141 0.16219-2.6599 0.29194-3.5357z"/>
   <path id="path4321" d="m100.74 1019.7 0.35682-2.887q0.22707-2.0436 0.68121-2.1734 0.61632-0.097 1.9138 0.4542 0.0649 0.032 0.32438 0.1297 0.25951 0.097 0.38926 0.1946 0.16219 0.065 0.35682 0.1947 0.19463 0.097 0.29195 0.2595 0.0973 0.1622 0.0973 0.3244 0 0.4217-0.22707 1.7192-0.19462 1.2975-0.32438 1.7192 0.74608 0 2.3031-0.032l1.5895-0.033q0.48657 0 0.48657 0.4542 0 0.519-1.4597 0.7785-0.6812 0.1297-3.0168 0.1297-0.29195 1.4598-0.74608 5.2226-0.45414 3.7628-0.45414 5.0604 0 0.9407 0.0324 1.4272 0.0324 0.4866 0.19463 1.1678 0.16219 0.6488 0.55145 0.9407 0.4217 0.292 1.0705 0.292 1.038 0 2.4329-1.0381 0.25951 0.065 0.4217 0.1947 0.0973 0.065 0.12975 0.227 0.0649 0.1622 0 0.1947-1.5895 1.7192-3.6331 1.7192-1.2651 0-2.2058-0.6488-0.90827-0.6812-1.3948-1.7516-0.48657-1.0705-0.71364-2.141-0.19463-1.1029-0.19463-2.2382 0-3.0492 0.61633-8.3042-0.58389 0.032-2.4653 0-1.8814-0.065-2.2382-0.1297-0.55145-0.097-0.55145-0.3893 0-0.065 0.12975-0.2595 0.09731-0.1946 0.19463-0.2271 0.06488-0.032 1.2002-0.1297 1.1353-0.1298 2.368-0.2271 1.2651-0.1297 1.4922-0.1946z"/>
   <path id="path4323" d="m114.08 1023.2q0.19463-0.6487 0.42169-0.6163 0.19463 0.065 0.68121 0.3893 0.51901 0.3243 0.74608 0.6163 0.48657 0.1946 1.038 0.6812 0.55145 0.4541 0.55145 0.6163-0.0324 0.097-0.22707 0.3568-0.16219 0.2595-0.19463 0.3893-0.94071 3.406-0.94071 6.5201 0 2.3355 1.2327 2.3355 0.29194 0 0.58388-0.065 0.29195-0.065 0.48658-0.1297 0.19463-0.065 0.38926-0.1622 0.22706-0.1298 0.32438-0.1946 0.12975-0.097 0.22707-0.1947l0.0973-0.065q0.16219-0.065 0.22707 0l0.19463 0.2595q0.0649 0.1297-0.0649 0.2595-1.4597 1.4597-3.1465 1.4597-1.33 0-2.3031-0.8758-0.97315-0.9083-1.1353-1.9463 0 0.032-0.16219 0.4865-0.12975 0.4542-0.22707 0.7137-0.0973 0.2271-0.29194 0.7136-0.16219 0.4542-0.32438 0.7461-0.1622 0.292-0.38926 0.6163-0.22707 0.3244-0.45414 0.4866t-0.48657 0.1622q-0.48658 0-1.2327-0.2271-0.71364-0.1946-1.0705-0.6163-0.97314-1.1029-1.1029-3.4709-0.12975-2.368 0.38926-4.8333 0.55145-2.4977 1.4597-4.4116 0.29195-0.5514 0.48658-0.8434 0.19463-0.3244 0.71364-0.6812 0.55145-0.3568 1.2651-0.3568 0.55145 0 0.97315 0.2595 0.42169 0.2271 0.55145 0.4217 0.16219 0.1622 0.42169 0.6812 0.25951 0.4866 0.29195 0.519zm-0.81096 1.9788q0.0324-0.7786-0.25951-1.4598-0.29194-0.6812-0.6812-0.6812-1.0705 0-1.9463 3.7953-0.87583 3.7953-0.87583 6.0011 0 2.887 0.81095 2.887 0.61633 0 1.33-2.2383 0.71364-2.2382 1.0056-3.925 0.29195-1.6543 0.61633-4.3791z"/>
  </g>
  <text id="text4140" style="word-spacing:0px;letter-spacing:0px" xml:space="preserve" font-size="25.745px" y="1041.808" x="45.228134" font-family="sans-serif" line-height="125%" fill="#999999"><tspan id="tspan4142" font-size="4.8272px" y="1041.808" x="45.228134" font-family="Roboto" fill="#999999">Ahmad Muhar Dian Lasmita</tspan></text>
 </g>
</svg>
